<?xml version="1.0" encoding="utf-8"?>
<!-- Svg Vector Icons : http://www.onlinewebfonts.com/icon -->
<!DOCTYPE svg PUBLIC "-//W3C//DTD SVG 1.1//EN" "http://www.w3.org/Graphics/SVG/1.1/DTD/svg11.dtd">
<svg version="1.1" xmlns="http://www.w3.org/2000/svg" xmlns:xlink="http://www.w3.org/1999/xlink" x="0px" y="0px" viewBox="0 0 1000 1000" enable-background="new 0 0 1000 1000" xml:space="preserve">
<metadata> Svg Vector Icons : http://www.onlinewebfonts.com/icon </metadata>
<g><g fill="white" transform="translate(0.000000,512.000000) scale(0.100000,-0.100000)"><path d="M4481.3,5004.4c-90.2-9.6-280.1-40.3-422-67.1C2307.9,4595.8,898,3349,336,1645.6C161.4,1116.2,98.1,707.6,100,105.3c0-506.4,26.9-730.8,142-1189.3c92.1-366.4,178.4-598.5,354.9-959.1c232.1-473.8,498.7-853.6,859.4-1229.6c799.9-832.5,1818.5-1340.8,2977.1-1486.6c247.4-30.7,884.3-30.7,1131.7,0c1678.5,211,3105.6,1220,3836.5,2716.2c235.9,479.6,372.1,915,454.6,1438.7c53.7,349.1,59.5,1072.3,9.6,1396.5C9696.9,1898.8,9227,2834.9,8461.6,3596.4C7671.3,4384.8,6670,4866.3,5557.4,4996.7C5298.4,5027.4,4751.7,5031.3,4481.3,5004.4z M5536.3,4689.8c2004.6-239.8,3612-1745.6,3988-3730.9c239.8-1271.8-80.6-2593.5-888.2-3654.2c-163.1-212.9-521.7-579.3-750-763.4c-535.2-431.6-1174-744.3-1841.5-901.6c-665.6-157.3-1425.2-157.3-2090.9,0C2614.8-4045.8,1473.5-3136.5,875-1908.9c-163.1,329.9-251.3,571.6-335.7,899.6C4.1,1098.9,1018.9,3289.5,2975.5,4248.6c512.2,249.4,1030.1,399,1601.7,456.5C4765.2,4724.4,5321.5,4714.8,5536.3,4689.8z"/><path d="M2543.9,1898.8v-153.5h2455.3h2455.3v153.5v153.5H4999.2H2543.9V1898.8z"/><path d="M2543.9,709.5V556h2455.3h2455.3v153.5V863H4999.2H2543.9V709.5z"/><path d="M2543.9-479.8v-153.5h2455.3h2455.3v153.5v153.5H4999.2H2543.9V-479.8z"/><path d="M2543.9-1669.1v-153.5h2455.3h2455.3v153.5v153.5H4999.2H2543.9V-1669.1z"/></g></g>
</svg>